<svg width="569" height="76" viewBox="0 0 569 76" fill="none" xmlns="http://www.w3.org/2000/svg">
<g clip-path="url(#clip0_66_2445)">
<path d="M101.12 0.0699929C92.69 -0.130007 84.46 3.23999 77.94 9.64999C70.52 16.95 66.35 27.15 66.49 37.58C66.35 47.95 70.49 58.08 77.85 65.38C84.22 71.7 92.24 75.15 100.42 75.15C100.64 75.15 100.85 75.15 101.07 75.15C109.52 75.35 117.84 71.87 124.38 65.39C131.74 58.09 135.88 47.96 135.74 37.65C135.88 27.17 131.71 16.97 124.29 9.66999C117.78 3.23999 109.58 -0.150007 101.12 0.0699929ZM116.54 37.61C116.54 43.25 115.01 47.93 111.86 51.92L111.84 51.95C109.01 55.67 105.4 57.56 101.12 57.56C96.84 57.56 93.37 55.71 90.4 51.95C87.32 47.9 85.83 43.21 85.83 37.62C85.83 26.62 92.69 17.67 101.13 17.67C105.29 17.67 108.81 19.56 111.88 23.44C115.03 27.42 116.56 32.06 116.56 37.62L116.54 37.61ZM135.05 1.50999H203.12V20.01H178.36V73.7H159.82V20.01H135.06V1.50999H135.05ZM27.55 1.50999H0V73.71H27.55C47.17 73.71 63.75 57.18 63.75 37.61C63.75 18.04 47.51 1.50999 27.55 1.50999ZM45.2 37.6C45.2 47.14 37.12 55.19 27.55 55.19H18.55V20.01H27.55C37.12 20.01 45.2 28.07 45.2 37.61V37.6ZM251.19 1.50999H269.86V73.71H251.19V46.8H226.11V73.71H207.57V1.50999H226.11V28.29H251.19V1.50999Z" fill="#2B00C9"/>
<path d="M510.9 1.57001L475.85 75.2H470.44L455.72 44.16L441 75.2H435.46L400.53 1.57001H420.57L438.28 40.06L445.9 23.44L435.51 1.57001H455.55L473.14 40.06L490.86 1.57001H510.9ZM561.97 37.89C558.01 34.93 553.39 32.62 548.27 31.05C544.53 29.87 540.86 28.64 536.97 27.34L533.27 26.1C527.45 24.02 527 22.42 527 21.98C527 17.92 533.21 17.32 536.92 17.32C543.53 17.32 552.3 20.52 558.3 23.51L560.13 24.42L566.87 10.13L565.37 9.18001C555.85 3.17001 545.29 -0.00999451 534.82 -0.00999451C519.05 -0.00999451 506.23 10.15 506.23 22.63C506.23 28.33 508.33 32.94 512.5 36.35C516.28 39.31 520.71 41.64 526.12 43.48C530.22 44.74 534.15 46.05 538.32 47.45L541.27 48.44C547.17 50.4 547.63 52.08 547.63 52.55C547.63 57.48 539.33 57.87 536.79 57.87C529.99 57.87 521.77 55.65 512.35 51.26L509.98 50.16L507.21 66.06L508.33 66.78C517.07 72.36 527 75.2 537.84 75.2C552.96 75.2 568.27 66.88 568.27 50.99C568.27 45.5 566.09 40.98 561.97 37.89ZM348.62 73.7H396.25V55.2H367.16V46.79H396.25V28.29H367.16V20.01H396.25V1.50001H348.62V73.69V73.7ZM321.5 38.65L292.5 1.57001H277.87V73.77H296.41V36.78L325.54 73.77H340.17V1.57001H321.49V38.65H321.5Z" fill="#394AF7"/>
</g>
<defs>
<clipPath id="clip0_66_2445">
<rect width="568.27" height="75.2" fill="white"/>
</clipPath>
</defs>
</svg>
