<svg width="359" height="80" viewBox="0 0 359 80" fill="none" xmlns="http://www.w3.org/2000/svg">
<g clip-path="url(#clip0_1_2w)">
<path d="M34.187 20.873H20V58.8511C21.929 58.8511 33.772 58.8511 34.187 58.8511C44.664 58.8511 53.176 50.048 53.176 39.863C53.176 29.458 44.591 20.873 34.187 20.873ZM34.187 50.774H28.076V28.948H34.187C40.153 28.948 45.1 33.969 45.1 39.862C45.1 45.827 40.08 50.774 34.187 50.774ZM75.038 20.073C65.216 19.782 56.777 29.094 56.922 39.862C56.776 50.556 65.216 59.8691 75.038 59.6511C84.86 59.8691 93.299 50.556 93.154 39.862C93.299 29.095 84.86 19.782 75.038 20.073ZM81.877 48.52C80.058 50.921 77.73 52.085 75.038 52.085C72.346 52.085 70.091 50.921 68.199 48.52C66.38 46.119 65.434 43.282 65.434 39.863C65.434 33.17 69.726 27.64 75.038 27.64C77.73 27.64 79.985 28.876 81.877 31.277C83.769 33.678 84.714 36.515 84.714 39.863C84.714 43.281 83.769 46.118 81.877 48.52ZM96.099 20.873H131.676V28.948H117.926V58.85H109.85V28.948H96.1L96.099 20.873ZM170.96 20.873V58.8511H162.812V43.863H146.662V58.85H138.586V20.873H146.662V35.788H162.812V20.873H170.96Z" fill="white"></path>
<path d="M201.698 20.873H209.846V58.851H203.371L185.545 36.152V58.851H177.47V20.873H183.945L201.696 43.645V20.873H201.698ZM216.757 58.814H240.984V50.738H224.832V43.827H240.984V35.752H224.832V28.912H240.984V20.837H216.757V58.814ZM286.452 43.863L275.975 20.873H267.319L272.557 31.932L267.1 43.864L256.551 20.874H247.893L266.227 59.652H267.901L276.776 40.881L285.653 59.652H287.253L305.659 20.874H297.003L286.452 43.863ZM335.669 40.88C333.632 39.353 331.231 38.116 328.394 37.243C325.628 36.37 322.865 35.424 320.027 34.477C317.189 33.459 315.808 32.368 315.808 31.131C315.808 28.803 317.99 27.42 322.427 27.42C326.066 27.42 331.013 29.094 334.796 30.984L337.634 24.946C332.468 21.673 326.866 20 321.263 20C313.042 20 306.495 25.238 306.495 31.495C306.495 34.333 307.513 36.588 309.55 38.261C311.587 39.863 313.988 41.099 316.753 42.044C319.591 42.917 322.355 43.863 325.192 44.81C328.03 45.755 329.485 46.847 329.485 48.156C329.485 51.066 326.21 52.23 322.354 52.23C318.426 52.23 313.77 50.994 308.313 48.447L307.149 55.14C311.805 58.123 317.044 59.652 322.936 59.652C331.303 59.652 338.723 55.068 338.723 47.283C338.724 44.591 337.706 42.408 335.669 40.88Z" fill="white"></path>
</g>
<defs>
<clipPath id="clip0_1_2w">
<rect width="318.724" height="39.655" fill="white" transform="translate(20 20)"></rect>
</clipPath>
</defs>
</svg>