<svg preserveAspectRatio="none" width="100%" height="100%" overflow="visible" style="display: block;" viewBox="0 0 1419.99 404.092" fill="none" xmlns="http://www.w3.org/2000/svg">
<g id="Group">
<path id="Vector" d="M63.2068 8.89593H0V395.902C8.5942 395.902 61.3579 395.902 63.2068 395.902C109.885 395.902 147.808 306.196 147.808 202.408C147.808 96.3791 109.559 8.89593 63.2068 8.89593ZM63.2068 313.594H35.9807V91.1821H63.2068C89.7869 91.1821 111.827 142.347 111.827 202.398C111.827 263.183 89.4617 313.594 63.2068 313.594ZM245.209 0.743751C201.449 -2.22161 163.851 92.6698 164.497 202.398C163.847 311.373 201.449 406.274 245.209 404.054C288.968 406.274 326.566 311.373 325.92 202.398C326.566 92.68 288.968 -2.22161 245.209 0.743751ZM275.678 290.625C267.574 315.092 257.202 326.954 245.209 326.954C233.215 326.954 223.169 315.092 214.739 290.625C206.635 266.159 202.42 237.249 202.42 202.408C202.42 134.205 221.542 77.8532 245.209 77.8532C257.202 77.8532 267.249 90.4484 275.678 114.915C284.108 139.382 288.318 168.292 288.318 202.408C288.318 237.239 284.108 266.148 275.678 290.625ZM339.041 8.89593H497.546V91.1821H436.286V395.89H400.305V91.1821H339.046L339.041 8.89593ZM672.567 8.89593V395.902H636.265V243.169H564.313V395.89H528.332V8.89593H564.313V160.883H636.265V8.89593H672.567Z" fill="var(--fill-0, #1500FF)"/>
<path id="Vector_2" d="M809.512 8.89607H845.814V395.901H816.966L737.547 164.593V395.901H701.57V8.89607H730.418L809.504 240.948V8.89607H809.512ZM876.604 395.524H984.542V313.227H912.581V242.803H984.542V160.517H912.581V90.8154H984.542V8.52922H876.604V395.524ZM1187.11 243.17L1140.44 8.89607H1101.87L1125.21 121.59L1100.9 243.18L1053.9 8.90627H1015.32L1097.01 404.063H1104.46L1144 212.782L1183.55 404.063H1190.68L1272.69 8.90627H1234.12L1187.11 243.17ZM1406.39 212.772C1397.31 197.212 1386.62 184.606 1373.98 175.71C1361.65 166.814 1349.34 157.174 1336.7 147.524C1324.06 137.15 1317.9 126.033 1317.9 113.428C1317.9 89.7046 1327.62 75.6115 1347.39 75.6115C1363.6 75.6115 1385.64 92.67 1402.5 111.93L1415.14 50.4009C1392.13 17.0483 1367.17 0 1342.21 0C1305.58 0 1276.41 53.3765 1276.41 117.137C1276.41 146.057 1280.95 169.036 1290.02 186.084C1299.1 202.409 1309.79 215.004 1322.11 224.634C1334.76 233.53 1347.07 243.17 1359.71 252.82C1372.35 262.449 1378.84 273.577 1378.84 286.916C1378.84 316.57 1364.25 328.431 1347.07 328.431C1329.57 328.431 1308.82 315.836 1284.51 289.882L1279.32 358.085C1300.07 388.482 1323.41 404.063 1349.66 404.063C1386.94 404.063 1419.99 357.351 1419.99 278.02C1420 250.588 1415.46 228.343 1406.39 212.772Z" fill="var(--fill-0, #394AF7)"/>
</g>
</svg>
