<svg preserveAspectRatio="none" width="100%" height="100%" overflow="visible" style="display: block;" viewBox="0 0 1411.11 324.151" fill="none" xmlns="http://www.w3.org/2000/svg">
<g id="Group">
<path id="Vector" d="M91.7767 7.13611H0V317.581C12.4788 317.581 89.0921 317.581 91.7767 317.581C159.553 317.581 214.618 245.622 214.618 162.366C214.618 77.3126 159.081 7.13611 91.7767 7.13611ZM91.7767 251.556H52.2442V73.1437H91.7767C130.371 73.1437 162.374 114.187 162.374 162.358C162.374 211.118 129.899 251.556 91.7767 251.556ZM283.75 0.596669C220.211 -1.78206 165.618 74.3371 166.556 162.358C165.612 249.774 220.211 325.902 283.75 324.12C347.289 325.902 401.882 249.774 400.944 162.358C401.882 74.3453 347.289 -1.78206 283.75 0.596669ZM327.992 233.131C316.225 252.758 301.165 262.273 283.75 262.273C266.335 262.273 251.748 252.758 239.508 233.131C227.741 213.505 221.621 190.314 221.621 162.366C221.621 107.656 249.386 62.4517 283.75 62.4517C301.165 62.4517 315.753 72.5551 327.992 92.1817C340.231 111.808 346.345 134.999 346.345 162.366C346.345 190.306 340.231 213.497 327.992 233.131ZM334.687 7.13611H564.837V73.1437H475.888V317.572H423.644V73.1437H334.694L334.687 7.13611ZM717.756 7.13611V317.581H665.046V195.064H560.57V317.572H508.326V7.13611H560.57V129.056H665.046V7.13611H717.756Z" fill="var(--fill-0, #2600FF)"/>
<path id="Vector_2" d="M842.784 7.13617H895.494V317.58H853.606L738.289 132.032V317.58H686.051V7.13617H727.938L842.771 193.282V7.13617H842.784ZM810.071 317.278H966.797V251.262H862.308V194.769H966.797V128.762H862.308V72.8495H966.797V6.8419H810.071V317.278ZM1145.26 195.064L1077.48 7.13617H1021.49L1055.37 97.5359L1020.07 195.072L951.829 7.14435H895.82L1014.42 324.128H1025.25L1082.67 170.688L1140.09 324.128H1150.44L1269.51 7.14435H1213.52L1145.26 195.064ZM1391.35 170.68C1378.18 158.197 1362.64 148.086 1344.29 140.95C1326.4 133.814 1308.52 126.081 1290.17 118.34C1271.81 110.018 1262.87 101.1 1262.87 90.9883C1262.87 71.9585 1276.99 60.6534 1305.69 60.6534C1329.23 60.6534 1361.23 74.3372 1385.71 89.7866L1404.07 40.4301C1370.65 13.6756 1334.41 0 1298.16 0C1244.98 0 1202.63 42.8171 1202.63 93.9637C1202.63 117.162 1209.21 135.596 1222.39 149.271C1235.57 162.366 1251.1 172.47 1268.99 180.195C1287.34 187.331 1305.23 195.064 1323.58 202.805C1341.94 210.529 1351.35 219.456 1351.35 230.156C1351.35 253.943 1330.16 263.458 1305.22 263.458C1279.81 263.458 1249.69 253.355 1214.39 232.535L1206.86 287.245C1236.98 311.629 1270.87 324.128 1308.98 324.128C1363.11 324.128 1411.11 286.657 1411.11 223.02C1411.12 201.015 1404.53 183.17 1391.35 170.68Z" fill="var(--fill-0, #00FFE1)"/>
</g>
</svg>
